<svg width="158" height="213" viewBox="0 0 158 213" fill="none" xmlns="http://www.w3.org/2000/svg">
<g opacity="0.4">
<path d="M17.75 106.5C17.75 73.0324 17.75 56.2941 28.1515 45.9015C38.5441 35.5 55.2824 35.5 88.75 35.5H124.25C157.718 35.5 174.456 35.5 184.848 45.9015C195.25 56.2941 195.25 73.0324 195.25 106.5V124.25C195.25 157.718 195.25 174.456 184.848 184.848C174.456 195.25 157.718 195.25 124.25 195.25H88.75C55.2824 195.25 38.5441 195.25 28.1515 184.848C17.75 174.456 17.75 157.718 17.75 124.25V106.5Z" stroke="#FCFCFC" stroke-width="20"/>
<path d="M62.125 35.5V22.1875M150.875 35.5V22.1875M22.1875 79.875H190.812" stroke="#FCFCFC" stroke-width="20" stroke-linecap="round"/>
<path d="M159.75 150.875C159.75 153.229 158.815 155.486 157.151 157.151C155.486 158.815 153.229 159.75 150.875 159.75C148.521 159.75 146.264 158.815 144.599 157.151C142.935 155.486 142 153.229 142 150.875C142 148.521 142.935 146.264 144.599 144.599C146.264 142.935 148.521 142 150.875 142C153.229 142 155.486 142.935 157.151 144.599C158.815 146.264 159.75 148.521 159.75 150.875ZM159.75 115.375C159.75 117.729 158.815 119.986 157.151 121.651C155.486 123.315 153.229 124.25 150.875 124.25C148.521 124.25 146.264 123.315 144.599 121.651C142.935 119.986 142 117.729 142 115.375C142 113.021 142.935 110.764 144.599 109.099C146.264 107.435 148.521 106.5 150.875 106.5C153.229 106.5 155.486 107.435 157.151 109.099C158.815 110.764 159.75 113.021 159.75 115.375ZM115.375 150.875C115.375 153.229 114.44 155.486 112.776 157.151C111.111 158.815 108.854 159.75 106.5 159.75C104.146 159.75 101.889 158.815 100.224 157.151C98.56 155.486 97.625 153.229 97.625 150.875C97.625 148.521 98.56 146.264 100.224 144.599C101.889 142.935 104.146 142 106.5 142C108.854 142 111.111 142.935 112.776 144.599C114.44 146.264 115.375 148.521 115.375 150.875ZM115.375 115.375C115.375 117.729 114.44 119.986 112.776 121.651C111.111 123.315 108.854 124.25 106.5 124.25C104.146 124.25 101.889 123.315 100.224 121.651C98.56 119.986 97.625 117.729 97.625 115.375C97.625 113.021 98.56 110.764 100.224 109.099C101.889 107.435 104.146 106.5 106.5 106.5C108.854 106.5 111.111 107.435 112.776 109.099C114.44 110.764 115.375 113.021 115.375 115.375ZM71 150.875C71 153.229 70.065 155.486 68.4006 157.151C66.7362 158.815 64.4788 159.75 62.125 159.75C59.7712 159.75 57.5138 158.815 55.8494 157.151C54.185 155.486 53.25 153.229 53.25 150.875C53.25 148.521 54.185 146.264 55.8494 144.599C57.5138 142.935 59.7712 142 62.125 142C64.4788 142 66.7362 142.935 68.4006 144.599C70.065 146.264 71 148.521 71 150.875ZM71 115.375C71 117.729 70.065 119.986 68.4006 121.651C66.7362 123.315 64.4788 124.25 62.125 124.25C59.7712 124.25 57.5138 123.315 55.8494 121.651C54.185 119.986 53.25 117.729 53.25 115.375C53.25 113.021 54.185 110.764 55.8494 109.099C57.5138 107.435 59.7712 106.5 62.125 106.5C64.4788 106.5 66.7362 107.435 68.4006 109.099C70.065 110.764 71 113.021 71 115.375Z" fill="#FCFCFC"/>
</g>
</svg>
