<svg width="158" height="213" viewBox="0 0 158 213" fill="none" xmlns="http://www.w3.org/2000/svg">
<g opacity="0.4">
<path d="M71 44.375H53.25C48.5424 44.375 44.0276 46.2451 40.6989 49.5739C37.3701 52.9026 35.5 57.4174 35.5 62.125V168.625C35.5 173.333 37.3701 177.847 40.6989 181.176C44.0276 184.505 48.5424 186.375 53.25 186.375H103.811M159.75 124.25V159.75H195.25M159.75 97.625V62.125C159.75 57.4174 157.88 52.9026 154.551 49.5739C151.222 46.2451 146.708 44.375 142 44.375H124.25" stroke="#FCFCFC" stroke-width="20" stroke-linecap="round" stroke-linejoin="round"/>
<path d="M71 97.625H106.5M71 133.125H97.625M71 44.375C71 39.6674 72.8701 35.1526 76.1989 31.8239C79.5276 28.4951 84.0424 26.625 88.75 26.625H106.5C111.208 26.625 115.722 28.4951 119.051 31.8239C122.38 35.1526 124.25 39.6674 124.25 44.375C124.25 49.0826 122.38 53.5974 119.051 56.9261C115.722 60.2549 111.208 62.125 106.5 62.125H88.75C84.0424 62.125 79.5276 60.2549 76.1989 56.9261C72.8701 53.5974 71 49.0826 71 44.375ZM124.25 159.75C124.25 169.165 127.99 178.195 134.648 184.852C141.305 191.51 150.335 195.25 159.75 195.25C169.165 195.25 178.195 191.51 184.852 184.852C191.51 178.195 195.25 169.165 195.25 159.75C195.25 150.335 191.51 141.305 184.852 134.648C178.195 127.99 169.165 124.25 159.75 124.25C150.335 124.25 141.305 127.99 134.648 134.648C127.99 141.305 124.25 150.335 124.25 159.75Z" stroke="#FCFCFC" stroke-width="20" stroke-linecap="round" stroke-linejoin="round"/>
</g>
</svg>
