<svg width="158" height="267" viewBox="0 0 158 267" fill="none" xmlns="http://www.w3.org/2000/svg">
<g opacity="0.4">
<path d="M88.6666 55.625H66.5C60.621 55.625 54.9828 57.9692 50.8258 62.1419C46.6687 66.3146 44.3333 71.9739 44.3333 77.875V211.375C44.3333 217.276 46.6687 222.935 50.8258 227.108C54.9828 231.281 60.621 233.625 66.5 233.625H129.642M199.5 155.75V200.25H243.833M199.5 122.375V77.875C199.5 71.9739 197.165 66.3146 193.008 62.1419C188.85 57.9692 183.212 55.625 177.333 55.625H155.167" stroke="#FCFCFC" stroke-width="30" stroke-linecap="round" stroke-linejoin="round"/>
<path d="M88.6666 122.375H133M88.6666 166.875H121.917M88.6666 55.625C88.6666 49.7239 91.002 44.0646 95.1591 39.8919C99.3162 35.7192 104.954 33.375 110.833 33.375H133C138.879 33.375 144.517 35.7192 148.674 39.8919C152.831 44.0646 155.167 49.7239 155.167 55.625C155.167 61.5261 152.831 67.1854 148.674 71.3581C144.517 75.5308 138.879 77.875 133 77.875H110.833C104.954 77.875 99.3162 75.5308 95.1591 71.3581C91.002 67.1854 88.6666 61.5261 88.6666 55.625ZM155.167 200.25C155.167 212.052 159.837 223.371 168.152 231.716C176.466 240.062 187.742 244.75 199.5 244.75C211.258 244.75 222.534 240.062 230.848 231.716C239.162 223.371 243.833 212.052 243.833 200.25C243.833 188.448 239.162 177.129 230.848 168.784C222.534 160.438 211.258 155.75 199.5 155.75C187.742 155.75 176.466 160.438 168.152 168.784C159.837 177.129 155.167 188.448 155.167 200.25Z" stroke="#FCFCFC" stroke-width="30" stroke-linecap="round" stroke-linejoin="round"/>
</g>
</svg>
