<svg width="170" height="170" viewBox="0 0 170 170" fill="none" xmlns="http://www.w3.org/2000/svg">
<rect x="1" y="1" width="168" height="168" rx="7" stroke="#FCFCFC" stroke-width="2" stroke-dasharray="4 4"/>
<path d="M86.5438 62.0385C86.5438 61.1875 85.8539 60.5 85 60.5C84.1461 60.5 83.4562 61.1875 83.4562 62.0385V68.9615H76.509C75.655 68.9615 74.9651 69.649 74.9651 70.5C74.9651 71.351 75.655 72.0385 76.509 72.0385H83.4562V78.9615C83.4562 79.8125 84.1461 80.5 85 80.5C85.8539 80.5 86.5438 79.8125 86.5438 78.9615V72.0385H93.491C94.3449 72.0385 95.0348 71.351 95.0348 70.5C95.0348 69.649 94.3449 68.9615 93.491 68.9615H86.5438V62.0385Z" fill="#FCFCFC"/>
<path d="M65.5712 96.16V97.276H63.3512V104.5H61.9832V97.276H59.7512V96.16H65.5712ZM66.5006 101.164C66.5006 100.5 66.6366 99.912 66.9086 99.4C67.1886 98.888 67.5646 98.492 68.0366 98.212C68.5166 97.924 69.0446 97.78 69.6206 97.78C70.1406 97.78 70.5926 97.884 70.9766 98.092C71.3686 98.292 71.6806 98.544 71.9126 98.848V97.888H73.2926V104.5H71.9126V103.516C71.6806 103.828 71.3646 104.088 70.9646 104.296C70.5646 104.504 70.1086 104.608 69.5966 104.608C69.0286 104.608 68.5086 104.464 68.0366 104.176C67.5646 103.88 67.1886 103.472 66.9086 102.952C66.6366 102.424 66.5006 101.828 66.5006 101.164ZM71.9126 101.188C71.9126 100.732 71.8166 100.336 71.6246 100C71.4406 99.664 71.1966 99.408 70.8926 99.232C70.5886 99.056 70.2606 98.968 69.9086 98.968C69.5566 98.968 69.2286 99.056 68.9246 99.232C68.6206 99.4 68.3726 99.652 68.1806 99.988C67.9966 100.316 67.9046 100.708 67.9046 101.164C67.9046 101.62 67.9966 102.02 68.1806 102.364C68.3726 102.708 68.6206 102.972 68.9246 103.156C69.2366 103.332 69.5646 103.42 69.9086 103.42C70.2606 103.42 70.5886 103.332 70.8926 103.156C71.1966 102.98 71.4406 102.724 71.6246 102.388C71.8166 102.044 71.9126 101.644 71.9126 101.188ZM83.0935 97.78C83.6135 97.78 84.0775 97.888 84.4855 98.104C84.9015 98.32 85.2255 98.64 85.4575 99.064C85.6975 99.488 85.8175 100 85.8175 100.6V104.5H84.4615V100.804C84.4615 100.212 84.3135 99.76 84.0175 99.448C83.7215 99.128 83.3175 98.968 82.8055 98.968C82.2935 98.968 81.8855 99.128 81.5815 99.448C81.2855 99.76 81.1375 100.212 81.1375 100.804V104.5H79.7815V100.804C79.7815 100.212 79.6335 99.76 79.3375 99.448C79.0415 99.128 78.6375 98.968 78.1255 98.968C77.6135 98.968 77.2055 99.128 76.9015 99.448C76.6055 99.76 76.4575 100.212 76.4575 100.804V104.5H75.0895V97.888H76.4575V98.644C76.6815 98.372 76.9655 98.16 77.3095 98.008C77.6535 97.856 78.0215 97.78 78.4135 97.78C78.9415 97.78 79.4135 97.892 79.8295 98.116C80.2455 98.34 80.5655 98.664 80.7895 99.088C80.9895 98.688 81.3015 98.372 81.7255 98.14C82.1495 97.9 82.6055 97.78 83.0935 97.78ZM88.9262 98.872C89.1582 98.552 89.4742 98.292 89.8742 98.092C90.2822 97.884 90.7342 97.78 91.2302 97.78C91.8142 97.78 92.3422 97.92 92.8142 98.2C93.2862 98.48 93.6582 98.88 93.9302 99.4C94.2022 99.912 94.3382 100.5 94.3382 101.164C94.3382 101.828 94.2022 102.424 93.9302 102.952C93.6582 103.472 93.2822 103.88 92.8022 104.176C92.3302 104.464 91.8062 104.608 91.2302 104.608C90.7182 104.608 90.2622 104.508 89.8622 104.308C89.4702 104.108 89.1582 103.852 88.9262 103.54V104.5H87.5582V95.62H88.9262V98.872ZM92.9462 101.164C92.9462 100.708 92.8502 100.316 92.6582 99.988C92.4742 99.652 92.2262 99.4 91.9142 99.232C91.6102 99.056 91.2822 98.968 90.9302 98.968C90.5862 98.968 90.2582 99.056 89.9462 99.232C89.6422 99.408 89.3942 99.664 89.2022 100C89.0182 100.336 88.9262 100.732 88.9262 101.188C88.9262 101.644 89.0182 102.044 89.2022 102.388C89.3942 102.724 89.6422 102.98 89.9462 103.156C90.2582 103.332 90.5862 103.42 90.9302 103.42C91.2822 103.42 91.6102 103.332 91.9142 103.156C92.2262 102.972 92.4742 102.708 92.6582 102.364C92.8502 102.02 92.9462 101.62 92.9462 101.164ZM95.235 101.164C95.235 100.5 95.371 99.912 95.643 99.4C95.923 98.888 96.299 98.492 96.771 98.212C97.251 97.924 97.779 97.78 98.355 97.78C98.875 97.78 99.327 97.884 99.711 98.092C100.103 98.292 100.415 98.544 100.647 98.848V97.888H102.027V104.5H100.647V103.516C100.415 103.828 100.099 104.088 99.699 104.296C99.299 104.504 98.843 104.608 98.331 104.608C97.763 104.608 97.243 104.464 96.771 104.176C96.299 103.88 95.923 103.472 95.643 102.952C95.371 102.424 95.235 101.828 95.235 101.164ZM100.647 101.188C100.647 100.732 100.551 100.336 100.359 100C100.175 99.664 99.931 99.408 99.627 99.232C99.323 99.056 98.995 98.968 98.643 98.968C98.291 98.968 97.963 99.056 97.659 99.232C97.355 99.4 97.107 99.652 96.915 99.988C96.731 100.316 96.639 100.708 96.639 101.164C96.639 101.62 96.731 102.02 96.915 102.364C97.107 102.708 97.355 102.972 97.659 103.156C97.971 103.332 98.299 103.42 98.643 103.42C98.995 103.42 99.323 103.332 99.627 103.156C99.931 102.98 100.175 102.724 100.359 102.388C100.551 102.044 100.647 101.644 100.647 101.188ZM107.244 97.78C107.748 97.78 108.196 97.888 108.588 98.104C108.988 98.32 109.3 98.64 109.524 99.064C109.756 99.488 109.872 100 109.872 100.6V104.5H108.516V100.804C108.516 100.212 108.368 99.76 108.072 99.448C107.776 99.128 107.372 98.968 106.86 98.968C106.348 98.968 105.94 99.128 105.636 99.448C105.34 99.76 105.192 100.212 105.192 100.804V104.5H103.824V95.62H105.192V98.656C105.424 98.376 105.716 98.16 106.068 98.008C106.428 97.856 106.82 97.78 107.244 97.78Z" fill="white"/>
</svg>
