<svg width="30" height="30" viewBox="0 0 30 30" fill="none" xmlns="http://www.w3.org/2000/svg">
<rect width="30" height="30" rx="3" fill="#FF5959"/>
<path d="M20.6599 11.0867C21.1413 10.6054 21.1399 9.82618 20.6568 9.34313C20.1738 8.86008 19.3946 8.85872 18.9132 9.3401L14.997 13.2564L11.067 9.32645C10.584 8.8434 9.80481 8.84204 9.32343 9.32342C8.84205 9.8048 8.84341 10.584 9.32646 11.067L13.2564 14.997L9.34011 18.9132C8.85873 19.3946 8.86009 20.1738 9.34314 20.6568C9.8262 21.1399 10.6054 21.1412 11.0867 20.6599L15.003 16.7436L18.933 20.6735C19.416 21.1566 20.1952 21.1579 20.6766 20.6765C21.1579 20.1952 21.1566 19.416 20.6735 18.9329L16.7436 15.003L20.6599 11.0867Z" fill="#FCFCFC"/>
</svg>
