<svg width="17" height="18" viewBox="0 0 17 18" fill="none" xmlns="http://www.w3.org/2000/svg">
<path d="M13.4583 13.9583H3.54167V6.16667H13.4583M11.3333 1.20834V2.625H5.66667V1.20834H4.25V2.625H3.54167C2.75542 2.625 2.125 3.25542 2.125 4.04167V13.9583C2.125 14.3341 2.27426 14.6944 2.53993 14.9601C2.80561 15.2257 3.16594 15.375 3.54167 15.375H13.4583C13.8341 15.375 14.1944 15.2257 14.4601 14.9601C14.7257 14.6944 14.875 14.3341 14.875 13.9583V4.04167C14.875 3.66595 14.7257 3.30561 14.4601 3.03993C14.1944 2.77426 13.8341 2.625 13.4583 2.625H12.75V1.20834M12.0417 9H8.5V12.5417H12.0417V9Z" fill="#005AAB"/>
</svg>
