<svg width="25" height="24" viewBox="0 0 25 24" fill="none" xmlns="http://www.w3.org/2000/svg">
<path d="M21.8943 1.79998C22.5016 2.1401 22.949 2.70749 23.138 3.37739C23.3271 4.04728 23.2423 4.76483 22.9023 5.37223L14.2698 20.7877C14.0512 21.1783 13.748 21.5149 13.3824 21.7731C13.0167 22.0312 12.598 22.2042 12.1568 22.2795C11.7156 22.3548 11.2632 22.3304 10.8326 22.2082C10.4021 22.0859 10.0044 21.8689 9.6686 21.573L3.12635 15.81C2.604 15.3497 2.2859 14.7008 2.24202 14.0059C2.19813 13.3111 2.43207 12.6273 2.89235 12.105C3.35263 11.5826 4.00156 11.2645 4.69639 11.2206C5.39121 11.1768 6.075 11.4107 6.59735 11.871L11.0493 15.7935L18.3213 2.80798C18.4898 2.50718 18.7158 2.24249 18.9865 2.02904C19.2572 1.81559 19.5673 1.65755 19.8991 1.56394C20.2309 1.47034 20.5778 1.44301 20.9202 1.48351C21.2625 1.52401 21.5936 1.63155 21.8943 1.79998Z" fill="#005AAB"/>
</svg>
