<svg width="14" height="14" viewBox="0 0 14 14" fill="none" xmlns="http://www.w3.org/2000/svg">
<path d="M12.6599 3.08673C13.1413 2.60536 13.1399 1.82618 12.6568 1.34313C12.1738 0.860076 11.3946 0.85872 10.9132 1.3401L6.99696 5.25638L3.06703 1.32645C2.58398 0.843398 1.80481 0.842043 1.32343 1.32342C0.842054 1.8048 0.84341 2.58397 1.32646 3.06702L5.25639 6.99695L1.34011 10.9132C0.858732 11.3946 0.860088 12.1738 1.34314 12.6568C1.8262 13.1399 2.60537 13.1412 3.08674 12.6599L7.00303 8.74359L10.933 12.6735C11.416 13.1566 12.1952 13.1579 12.6766 12.6765C13.1579 12.1952 13.1566 11.416 12.6735 10.9329L8.7436 7.00302L12.6599 3.08673Z" fill="#FCFCFC"/>
</svg>
