<svg width="24" height="24" viewBox="0 0 24 24" fill="none" xmlns="http://www.w3.org/2000/svg">
<path fillRule="evenodd" clipRule="evenodd" d="M0 12C0 11.0532 0.767512 10.2857 1.71429 10.2857H22.2857C23.2325 10.2857 24 11.0532 24 12C24 12.9468 23.2325 13.7143 22.2857 13.7143H1.71429C0.767512 13.7143 0 12.9468 0 12Z" fill="#005AAB"/>
<path fillRule="evenodd" clipRule="evenodd" d="M12 0C12.9468 3.54727e-08 13.7143 0.767512 13.7143 1.71429V22.2857C13.7143 23.2325 12.9468 24 12 24C11.0532 24 10.2857 23.2325 10.2857 22.2857L10.2857 1.71429C10.2857 0.767512 11.0532 -3.54727e-08 12 0Z" fill="#005AAB"/>
</svg>
