<svg width="22" height="21" viewBox="0 0 22 21" fill="none" xmlns="http://www.w3.org/2000/svg">
<path d="M12.5438 2.03846C12.5438 1.1875 11.8539 0.5 11 0.5C10.1461 0.5 9.45617 1.1875 9.45617 2.03846V8.96154H2.50897C1.65504 8.96154 0.965149 9.64904 0.965149 10.5C0.965149 11.351 1.65504 12.0385 2.50897 12.0385H9.45617V18.9615C9.45617 19.8125 10.1461 20.5 11 20.5C11.8539 20.5 12.5438 19.8125 12.5438 18.9615V12.0385H19.491C20.3449 12.0385 21.0348 11.351 21.0348 10.5C21.0348 9.64904 20.3449 8.96154 19.491 8.96154H12.5438V2.03846Z" fill="#FCFCFC"/>
</svg>
