<svg width="21" height="21" viewBox="0 0 21 21" fill="none" xmlns="http://www.w3.org/2000/svg">
<path fill-rule="evenodd" clip-rule="evenodd" d="M10.4758 0C15.8458 0 20.2138 4.368 20.2138 9.738C20.2138 12.2715 19.2415 14.5823 17.6505 16.3165L20.7812 19.4407C21.0742 19.7337 21.0752 20.2077 20.7822 20.5007C20.6362 20.6487 20.4432 20.7217 20.2512 20.7217C20.0602 20.7217 19.8682 20.6487 19.7212 20.5027L16.5527 17.343C14.8859 18.6778 12.7725 19.477 10.4758 19.477C5.10582 19.477 0.736816 15.108 0.736816 9.738C0.736816 4.368 5.10582 0 10.4758 0ZM10.4758 1.5C5.93282 1.5 2.23682 5.195 2.23682 9.738C2.23682 14.281 5.93282 17.977 10.4758 17.977C15.0178 17.977 18.7138 14.281 18.7138 9.738C18.7138 5.195 15.0178 1.5 10.4758 1.5Z" fill="#005AAB"/>
</svg>
