<svg width="113" height="113" viewBox="0 0 113 113" fill="none" xmlns="http://www.w3.org/2000/svg">
<rect width="113" height="113" rx="20" fill="#C2C9D3"/>
<path fillRule="evenodd" clipRule="evenodd" d="M67.1811 28.8934C70.7297 30.3059 71.8154 35.2248 73.2665 36.8059C74.7176 38.387 76.7941 38.9245 77.943 38.9245C84.0495 38.9245 89 43.8751 89 49.978V70.3389C89 78.5253 82.3595 85.1659 74.173 85.1659H38.827C30.637 85.1659 24 78.5253 24 70.3389V49.978C24 43.8751 28.9505 38.9245 35.057 38.9245C36.2024 38.9245 38.2789 38.387 39.7335 36.8059C41.1846 35.2248 42.2668 30.3059 45.8154 28.8934C49.3676 27.481 63.6324 27.481 67.1811 28.8934Z" stroke="#FCFCFC" stroke-width="6" stroke-linecap="round" stroke-linejoin="round"/>
<path d="M75.8079 48.0375H75.8394" stroke="#FCFCFC" stroke-width="6" stroke-linecap="round" stroke-linejoin="round"/>
<path fillRule="evenodd" clipRule="evenodd" d="M67.6685 60.7846C67.6685 54.6148 62.6688 49.6151 56.499 49.6151C50.3293 49.6151 45.3296 54.6148 45.3296 60.7846C45.3296 66.9543 50.3293 71.954 56.499 71.954C62.6688 71.954 67.6685 66.9543 67.6685 60.7846Z" stroke="#FCFCFC" stroke-width="6" stroke-linecap="round" stroke-linejoin="round"/>
</svg>
