<svg width="14" height="10" viewBox="0 0 14 10" fill="none" xmlns="http://www.w3.org/2000/svg">
<path d="M13.0471 1.95286C13.0471 2.17733 12.9686 2.36813 12.8114 2.52525L6.71717 8.61953L5.57239 9.76431C5.41526 9.92144 5.22447 10 5 10C4.77553 10 4.58474 9.92144 4.42761 9.76431L3.28283 8.61953L0.23569 5.57239C0.0785634 5.41526 0 5.22447 0 5C0 4.77553 0.0785634 4.58474 0.23569 4.42761L1.38047 3.28283C1.5376 3.1257 1.7284 3.04714 1.95286 3.04714C2.17733 3.04714 2.36813 3.1257 2.52525 3.28283L5 5.76599L10.5219 0.23569C10.679 0.0785634 10.8698 0 11.0943 0C11.3187 0 11.5095 0.0785634 11.6667 0.23569L12.8114 1.38047C12.9686 1.5376 13.0471 1.7284 13.0471 1.95286Z" fill="#48AD83"/>
</svg>
