<svg width="10" height="10" viewBox="0 0 10 10" fill="none" xmlns="http://www.w3.org/2000/svg">
<path d="M8.6964 9.65676C8.48029 9.87286 8.18717 9.99427 7.88154 9.99427C7.57592 9.99427 7.2828 9.87286 7.06668 9.65676L4.52078 6.74689L1.97488 9.6558C1.86819 9.76424 1.74109 9.85049 1.60089 9.90956C1.4607 9.96864 1.31021 9.99937 1.15808 9.99999C1.00595 10.0006 0.855207 9.9711 0.71454 9.91317C0.573874 9.85524 0.446069 9.77003 0.338498 9.66246C0.230927 9.55489 0.145719 9.42709 0.0877879 9.28642C0.0298572 9.14575 0.000350392 8.99501 0.00096984 8.84288C0.00158929 8.69075 0.0323225 8.54026 0.0913969 8.40007C0.150471 8.25988 0.236718 8.13277 0.345161 8.02608L2.99382 5.00096L0.344201 1.97392C0.235758 1.86723 0.149511 1.74012 0.0904366 1.59993C0.0313623 1.45974 0.000629002 1.30925 9.55452e-06 1.15712C-0.000609893 1.00499 0.0288969 0.854247 0.0868277 0.71358C0.144758 0.572914 0.229967 0.445109 0.337538 0.337538C0.445109 0.229967 0.572914 0.144758 0.71358 0.0868277C0.854247 0.0288969 1.00499 -0.000609893 1.15712 9.55452e-06C1.30925 0.000629002 1.45974 0.0313623 1.59993 0.0904366C1.74012 0.149511 1.86723 0.235758 1.97392 0.344201L4.52078 3.25504L7.06668 0.344201C7.17338 0.235758 7.30048 0.149511 7.44067 0.0904366C7.58086 0.0313623 7.73136 0.000629002 7.88349 9.55452e-06C8.03561 -0.000609893 8.18636 0.0288969 8.32703 0.0868277C8.46769 0.144758 8.5955 0.229967 8.70307 0.337538C8.81064 0.445109 8.89585 0.572914 8.95378 0.71358C9.01171 0.854247 9.04122 1.00499 9.0406 1.15712C9.03998 1.30925 9.00924 1.45974 8.95017 1.59993C8.8911 1.74012 8.80485 1.86723 8.6964 1.97392L6.04775 5.00096L8.6964 8.02608C8.80355 8.13311 8.88856 8.26021 8.94655 8.40011C9.00455 8.54001 9.0344 8.68997 9.0344 8.84142C9.0344 8.99287 9.00455 9.14283 8.94655 9.28273C8.88856 9.42263 8.80355 9.54973 8.6964 9.65676Z" fill="#FF5959"/>
</svg>
